<svg id="Laag_1" data-name="Laag 1" xmlns="http://www.w3.org/2000/svg" viewBox="0 0 706.04 704.74"><defs><style>.cls-1{fill:#8c8c8d;}.cls-2{fill:#88888b;}.cls-3{fill:#656775;}.cls-4{fill:#1e1f2d;}.cls-5{fill:#0b0c16;}</style></defs><path class="cls-1" d="M836.27,299.17c-59.22,27.67-117,80.55-153.81,140.9-43.6,71.47-51.73,119-42.9,226.33,9.51,115.58,71,198.57,122,231.34s114.68,81.94,295.87,63c111.5-11.65,185.68-56,240.39-159.85,48-91.14,60.72-213.85,21.27-331.95-30.28-90.63-138.77-193.07-235.09-204.18C1004.79,255.65,922.33,259,836.27,299.17Z" transform="translate(-636.38 -260.22)"/><path class="cls-2" d="M879.7,301.12c-48.62,26.9-66.43,66.43-77.76,90.2-19.52,41-22.68,120.29-14.9,186.25,6.05,51.25,43.18,133.16,80.81,180.65,35.77,45.14,105.47,96.67,184.58,117.17,60.36,15.64,190.63,29.42,245.34-74.48,48-91.14,60.72-213.85,21.27-331.95-30.28-90.63-138.77-193.07-235.09-204.18C1004.79,255.65,942.3,266.49,879.7,301.12Z" transform="translate(-636.38 -260.22)"/><path class="cls-3" d="M918.09,277.81c-46.88,29.84-21,80.74,1.64,92.38,102.08,52.42,111.69,119.38,108.82,176.06-2.43,48.28-51.11,161.93-29.64,218.59,24.57,64.84,86.76,108.27,127.46,113.16,30.93,3.72,116.69,26.81,171.4-77.09,48-91.14,60.72-213.85,21.27-331.95-30.28-90.63-138.77-193.07-235.09-204.18C1004.79,255.65,945.5,260.36,918.09,277.81Z" transform="translate(-636.38 -260.22)"/><path class="cls-4" d="M926.61,281.23c-46.87,29.84,43.95,93.44,67.93,102C1138.93,435,1068,510,1051.13,564.54c-14.26,46.2-59.29,146.12-37.82,202.78,24.57,64.84,82.37,99.47,123.08,104.37,30.92,3.71,106.67,33.12,161.38-70.78,48-91.14,60.72-213.85,21.27-331.95-30.28-90.63-138.77-193.07-235.09-204.18C1004.79,255.65,954,263.78,926.61,281.23Z" transform="translate(-636.38 -260.22)"/><path class="cls-5" d="M951.55,283.76c-46.87,29.84,48.24,89.88,72.21,98.48,144.4,51.77,59.09,144.89,48.68,202.07-8.65,47.57-19.84,92.24,9.88,145.05,24.13,42.89,55.21,50.41,95.91,55.31,30.93,3.72,82.33-47.43,109.39-106.55,26.78-58.53,28.46-167.2,5.3-227.81-34.39-90-110.67-169.7-207-180.81C1006.77,260.37,979,266.31,951.55,283.76Z" transform="translate(-636.38 -260.22)"/></svg>