<svg id="visual" viewBox="0 0 900 600" width="900" height="600" xmlns="http://www.w3.org/2000/svg" xmlns:xlink="http://www.w3.org/1999/xlink" version="1.1"><path d="M553 600L563.7 575C574.3 550 595.7 500 604.7 450C613.7 400 610.3 350 603.2 300C596 250 585 200 576.2 150C567.3 100 560.7 50 557.3 25L554 0L900 0L900 25C900 50 900 100 900 150C900 200 900 250 900 300C900 350 900 400 900 450C900 500 900 550 900 575L900 600Z" fill="#19647e"></path><path d="M619 600L633.7 575C648.3 550 677.7 500 686 450C694.3 400 681.7 350 658.5 300C635.3 250 601.7 200 598.8 150C596 100 624 50 638 25L652 0L900 0L900 25C900 50 900 100 900 150C900 200 900 250 900 300C900 350 900 400 900 450C900 500 900 550 900 575L900 600Z" fill="#13738b"></path><path d="M697 600L688.5 575C680 550 663 500 664.2 450C665.3 400 684.7 350 681.7 300C678.7 250 653.3 200 641 150C628.7 100 629.3 50 629.7 25L630 0L900 0L900 25C900 50 900 100 900 150C900 200 900 250 900 300C900 350 900 400 900 450C900 500 900 550 900 575L900 600Z" fill="#0f8196"></path><path d="M709 600L705 575C701 550 693 500 697.8 450C702.7 400 720.3 350 733.5 300C746.7 250 755.3 200 750.2 150C745 100 726 50 716.5 25L707 0L900 0L900 25C900 50 900 100 900 150C900 200 900 250 900 300C900 350 900 400 900 450C900 500 900 550 900 575L900 600Z" fill="#1091a0"></path><path d="M789 600L794.5 575C800 550 811 500 819.3 450C827.7 400 833.3 350 821.2 300C809 250 779 200 762.3 150C745.7 100 742.3 50 740.7 25L739 0L900 0L900 25C900 50 900 100 900 150C900 200 900 250 900 300C900 350 900 400 900 450C900 500 900 550 900 575L900 600Z" fill="#19a0a9"></path><path d="M798 600L805.7 575C813.3 550 828.7 500 829.3 450C830 400 816 350 821.3 300C826.7 250 851.3 200 860.5 150C869.7 100 863.3 50 860.2 25L857 0L900 0L900 25C900 50 900 100 900 150C900 200 900 250 900 300C900 350 900 400 900 450C900 500 900 550 900 575L900 600Z" fill="#28afb0"></path></svg>