<svg id="visual" viewBox="0 0 900 600" width="900" height="600" xmlns="http://www.w3.org/2000/svg" xmlns:xlink="http://www.w3.org/1999/xlink" version="1.1"><path d="M575 600L588.3 575C601.7 550 628.3 500 636 450C643.7 400 632.3 350 607.7 300C583 250 545 200 535.2 150C525.3 100 543.7 50 552.8 25L562 0L900 0L900 25C900 50 900 100 900 150C900 200 900 250 900 300C900 350 900 400 900 450C900 500 900 550 900 575L900 600Z" fill="#19647e"></path><path d="M578 600L593.7 575C609.3 550 640.7 500 651.5 450C662.3 400 652.7 350 652.5 300C652.3 250 661.7 200 669.3 150C677 100 683 50 686 25L689 0L900 0L900 25C900 50 900 100 900 150C900 200 900 250 900 300C900 350 900 400 900 450C900 500 900 550 900 575L900 600Z" fill="#13738b"></path><path d="M658 600L653.7 575C649.3 550 640.7 500 655.5 450C670.3 400 708.7 350 716.8 300C725 250 703 200 701.7 150C700.3 100 719.7 50 729.3 25L739 0L900 0L900 25C900 50 900 100 900 150C900 200 900 250 900 300C900 350 900 400 900 450C900 500 900 550 900 575L900 600Z" fill="#0f8196"></path><path d="M760 600L750.8 575C741.7 550 723.3 500 726 450C728.7 400 752.3 350 751.8 300C751.3 250 726.7 200 723 150C719.3 100 736.7 50 745.3 25L754 0L900 0L900 25C900 50 900 100 900 150C900 200 900 250 900 300C900 350 900 400 900 450C900 500 900 550 900 575L900 600Z" fill="#1091a0"></path><path d="M789 600L783.8 575C778.7 550 768.3 500 773.7 450C779 400 800 350 796.2 300C792.3 250 763.7 200 749.2 150C734.7 100 734.3 50 734.2 25L734 0L900 0L900 25C900 50 900 100 900 150C900 200 900 250 900 300C900 350 900 400 900 450C900 500 900 550 900 575L900 600Z" fill="#19a0a9"></path><path d="M879 600L870.7 575C862.3 550 845.7 500 846 450C846.3 400 863.7 350 871.2 300C878.7 250 876.3 200 867 150C857.7 100 841.3 50 833.2 25L825 0L900 0L900 25C900 50 900 100 900 150C900 200 900 250 900 300C900 350 900 400 900 450C900 500 900 550 900 575L900 600Z" fill="#28afb0"></path></svg>